<svg width="34" height="30" viewBox="0 0 34 30" fill="none" xmlns="http://www.w3.org/2000/svg">
<path d="M32.6088 30C32.4106 30 32.215 29.9549 32.0369 29.868C31.8587 29.7811 31.7027 29.6548 31.5807 29.4986C29.7169 27.1121 27.9876 25.2703 25.6027 24.0359C23.3957 22.8969 20.6235 22.3025 16.9546 22.1916V28.6955C16.9538 28.9501 16.8785 29.1989 16.738 29.4113C16.5975 29.6237 16.3979 29.7903 16.1639 29.8906C15.9298 29.9909 15.6716 30.0205 15.4209 29.9757C15.1702 29.931 14.9381 29.8139 14.7532 29.6388L0.403466 15.9413C0.275947 15.8195 0.174447 15.6731 0.1051 15.511C0.0357536 15.3489 0 15.1744 0 14.998C0 14.8217 0.0357536 14.6471 0.1051 14.485C0.174447 14.3229 0.275947 14.1765 0.403466 14.0547L14.7532 0.357205C14.9381 0.182144 15.1702 0.065025 15.4209 0.0202902C15.6716 -0.0244445 15.9298 0.00516066 16.1639 0.105455C16.3979 0.205749 16.5975 0.372347 16.738 0.584708C16.8785 0.797068 16.9538 1.04591 16.9546 1.30054V7.85249C22.9994 8.13052 27.5033 10.3727 30.3545 14.5276C32.7165 17.9691 33.9133 22.7354 33.9133 28.6955C33.9133 29.0415 33.7759 29.3733 33.5313 29.6179C33.2866 29.8626 32.9548 30 32.6088 30Z" fill="#523015"/>
</svg>
