<svg width="36" height="35" viewBox="0 0 36 35" fill="none" xmlns="http://www.w3.org/2000/svg">
<path d="M31.7695 10.7344C31.5378 10.501 31.2621 10.3159 30.9584 10.1899C30.6546 10.0638 30.3289 9.99928 30 10H25V8.75C25 6.42936 24.0781 4.20376 22.4372 2.56282C20.7962 0.921872 18.5706 0 16.25 0C13.9294 0 11.7038 0.921872 10.0628 2.56282C8.42187 4.20376 7.5 6.42936 7.5 8.75V10H2.5C1.83696 10 1.20107 10.2634 0.732233 10.7322C0.263392 11.2011 0 11.837 0 12.5V29.375C0 32.4219 2.57812 35 5.625 35H26.875C28.3488 35.0005 29.7643 34.4242 30.8188 33.3945C31.3494 32.8883 31.7719 32.2798 32.0609 31.6057C32.3499 30.9317 32.4992 30.206 32.5 29.4727V12.5C32.501 12.172 32.437 11.8471 32.3116 11.544C32.1862 11.241 32.002 10.9658 31.7695 10.7344ZM10 8.75C10 7.0924 10.6585 5.50269 11.8306 4.33058C13.0027 3.15848 14.5924 2.5 16.25 2.5C17.9076 2.5 19.4973 3.15848 20.6694 4.33058C21.8415 5.50269 22.5 7.0924 22.5 8.75V10H10V8.75Z" fill="#F9E9D2"/>
<circle cx="28" cy="10" r="7" fill="#EA3232" stroke="#F9E9D2" stroke-width="2"/>
</svg>
