<svg width="64" height="61" viewBox="0 0 64 61" fill="none" xmlns="http://www.w3.org/2000/svg">
<path d="M5.32431 8.97144C8.68211 5.59319 14.3247 4.78947 14.3247 4.78947L35.8247 0.880376C35.8247 0.880376 46.4802 -2.12561 53.3248 2.97145C59.8998 7.86784 60.5042 17.7213 60.5042 17.7213L63.6836 38.4713C63.6836 38.4713 65.1585 45.8432 60.5041 52.4714C55.1157 60.1451 42.8247 59.6772 42.8247 59.6772L18.8247 60.383C18.8247 60.383 9.75616 60.0884 4.32422 54.4714C-1.11676 48.8451 0.121017 40.9713 0.121017 40.9713L1.41731 20.9713C1.41731 20.9713 1.46199 12.8573 5.32431 8.97144Z" fill="#523015"/>
</svg>
