<svg width="64" height="61" viewBox="0 0 64 61" fill="none" xmlns="http://www.w3.org/2000/svg">
<path d="M5.32431 8.97144C8.68211 5.59319 14.3247 4.78947 14.3247 4.78947L35.8247 0.880376C35.8247 0.880376 46.4802 -2.12561 53.3248 2.97145C59.8998 7.86784 60.5042 17.7213 60.5042 17.7213L63.6836 38.4713C63.6836 38.4713 65.1585 45.8432 60.5041 52.4714C55.1157 60.1451 42.8247 59.6772 42.8247 59.6772L18.8247 60.383C18.8247 60.383 9.75616 60.0884 4.32422 54.4714C-1.11676 48.8451 0.121017 40.9713 0.121017 40.9713L1.41731 20.9713C1.41731 20.9713 1.46199 12.8573 5.32431 8.97144Z" fill="#EA3232"/>
<path d="M24.6575 46C25.9655 46 27.0259 44.9396 27.0259 43.6316C27.0259 42.3235 25.9655 41.2631 24.6575 41.2631C23.3494 41.2631 22.2891 42.3235 22.2891 43.6316C22.2891 44.9396 23.3494 46 24.6575 46Z" fill="#F9E9D2"/>
<path d="M41.2371 46C42.5451 46 43.6055 44.9396 43.6055 43.6316C43.6055 42.3235 42.5451 41.2631 41.2371 41.2631C39.929 41.2631 38.8687 42.3235 38.8687 43.6316C38.8687 44.9396 39.929 46 41.2371 46Z" fill="#F9E9D2"/>
<path d="M45.4408 20.2025C45.2744 19.999 45.0648 19.8351 44.8272 19.7227C44.5896 19.6103 44.3299 19.5522 44.0671 19.5526H21.5412L21.0875 16.9785C21.0391 16.7043 20.8957 16.4559 20.6824 16.2769C20.469 16.098 20.1995 15.9999 19.9211 16H15.1842C14.8701 16 14.5689 16.1248 14.3468 16.3468C14.1248 16.5689 14 16.8701 14 17.1842C14 17.4983 14.1248 17.7995 14.3468 18.0216C14.5689 18.2437 14.8701 18.3684 15.1842 18.3684H18.9278L22.3072 37.5215C22.3556 37.7957 22.4991 38.0441 22.7124 38.2231C22.9257 38.402 23.1952 38.5 23.4737 38.5H42.421C42.7351 38.5 43.0363 38.3752 43.2584 38.1531C43.4805 37.9311 43.6053 37.6299 43.6053 37.3158C43.6053 37.0017 43.4805 36.7005 43.2584 36.4784C43.0363 36.2563 42.7351 36.1316 42.421 36.1316H24.4669L24.0495 33.7631H41.9355C42.3462 33.7626 42.7441 33.6202 43.0618 33.3601C43.3796 33.0999 43.5977 32.7379 43.6793 32.3354L45.8108 21.6775C45.8622 21.4196 45.8557 21.1535 45.7917 20.8984C45.7277 20.6433 45.6078 20.4056 45.4408 20.2025V20.2025Z" fill="#F9E9D2"/>
</svg>
