<svg width="38" height="35" viewBox="0 0 38 35" fill="none" xmlns="http://www.w3.org/2000/svg">
<path d="M12.4338 35C13.9599 35 15.197 33.7629 15.197 32.2369C15.197 30.7108 13.9599 29.4737 12.4338 29.4737C10.9078 29.4737 9.67065 30.7108 9.67065 32.2369C9.67065 33.7629 10.9078 35 12.4338 35Z" fill="#331A05"/>
<path d="M31.7763 35C33.3024 35 34.5395 33.7629 34.5395 32.2369C34.5395 30.7108 33.3024 29.4737 31.7763 29.4737C30.2503 29.4737 29.0132 30.7108 29.0132 32.2369C29.0132 33.7629 30.2503 35 31.7763 35Z" fill="#331A05"/>
<path d="M36.6809 4.90288C36.4868 4.66546 36.2423 4.47424 35.9651 4.34311C35.6879 4.21197 35.3849 4.14421 35.0783 4.14473H8.79806L8.26875 1.14153C8.21231 0.821632 8.04495 0.531852 7.79608 0.323089C7.5472 0.114326 7.23273 -6.82512e-05 6.90789 3.05503e-08H1.38158C1.01516 3.05503e-08 0.663751 0.145559 0.404655 0.404655C0.145559 0.663751 0 1.01516 0 1.38158C0 1.748 0.145559 2.09941 0.404655 2.3585C0.663751 2.6176 1.01516 2.76316 1.38158 2.76316H5.74909L9.69177 25.1085C9.74821 25.4284 9.91557 25.7181 10.1644 25.9269C10.4133 26.1357 10.7278 26.2501 11.0526 26.25H33.1579C33.5243 26.25 33.8757 26.1044 34.1348 25.8453C34.3939 25.5862 34.5395 25.2348 34.5395 24.8684C34.5395 24.502 34.3939 24.1506 34.1348 23.8915C33.8757 23.6324 33.5243 23.4868 33.1579 23.4868H12.2114L11.7244 20.7237H32.5914C33.0706 20.7231 33.5348 20.5569 33.9055 20.2534C34.2762 19.9499 34.5307 19.5276 34.6258 19.058L37.1127 6.6238C37.1726 6.32288 37.1649 6.01241 37.0903 5.7148C37.0156 5.41719 36.8758 5.13988 36.6809 4.90288Z" fill="#331A05"/>
</svg>
