<svg width="33" height="30" viewBox="0 0 33 30" fill="none" xmlns="http://www.w3.org/2000/svg">
<path d="M30 0H2.30769C1.03319 0 0 1.03319 0 2.30769V3.46154C0 4.73604 1.03319 5.76923 2.30769 5.76923H30C31.2745 5.76923 32.3077 4.73604 32.3077 3.46154V2.30769C32.3077 1.03319 31.2745 0 30 0Z" fill="#523015"/>
<path d="M3.06148 8.07695C2.98041 8.07651 2.90015 8.09317 2.82595 8.12583C2.75175 8.15849 2.68526 8.20643 2.63082 8.26651C2.57639 8.32659 2.53523 8.39747 2.51003 8.47453C2.48482 8.55159 2.47615 8.63309 2.48456 8.71373L4.38192 26.9272C4.38153 26.9325 4.38153 26.9378 4.38192 26.9431C4.48105 27.7855 4.88606 28.5622 5.52004 29.1257C6.15403 29.6892 6.97286 30.0004 7.8211 30H24.4862C25.3342 30 26.1527 29.6887 26.7864 29.1252C27.4201 28.5617 27.8249 27.7852 27.924 26.9431V26.9279L29.8185 8.71373C29.8269 8.63309 29.8182 8.55159 29.793 8.47453C29.7678 8.39747 29.7266 8.32659 29.6722 8.26651C29.6178 8.20643 29.5513 8.15849 29.4771 8.12583C29.4029 8.09317 29.3226 8.07651 29.2415 8.07695H3.06148ZM21.0081 21.1075C21.1178 21.2141 21.2052 21.3414 21.2653 21.482C21.3253 21.6227 21.3568 21.7739 21.3579 21.9269C21.359 22.0798 21.3296 22.2314 21.2716 22.3729C21.2135 22.5144 21.1279 22.643 21.0198 22.7511C20.9116 22.8592 20.783 22.9448 20.6415 23.0027C20.4999 23.0607 20.3483 23.09 20.1954 23.0888C20.0424 23.0877 19.8912 23.0561 19.7506 22.996C19.61 22.9359 19.4827 22.8485 19.3761 22.7387L16.154 19.5166L12.9312 22.7387C12.7138 22.9499 12.422 23.0671 12.119 23.065C11.8159 23.0628 11.5258 22.9415 11.3114 22.7273C11.097 22.513 10.9756 22.223 10.9733 21.9199C10.971 21.6168 11.0881 21.325 11.2992 21.1075L14.5221 17.8846L11.2992 14.6618C11.0881 14.4443 10.971 14.1525 10.9733 13.8494C10.9756 13.5463 11.097 13.2563 11.3114 13.042C11.5258 12.8278 11.8159 12.7064 12.119 12.7043C12.422 12.7021 12.7138 12.8193 12.9312 13.0306L16.154 16.2527L19.3761 13.0306C19.5935 12.8193 19.8853 12.7021 20.1884 12.7043C20.4915 12.7064 20.7816 12.8278 20.9959 13.042C21.2103 13.2563 21.3317 13.5463 21.334 13.8494C21.3363 14.1525 21.2192 14.4443 21.0081 14.6618L17.7853 17.8846L21.0081 21.1075Z" fill="#523015"/>
</svg>
