<svg width="135" height="83" viewBox="0 0 135 83" fill="none" xmlns="http://www.w3.org/2000/svg">
<path d="M142.5 82.5V0L31.0001 12.9151C31.0001 12.9151 21.2382 13.242 16.0001 18C11.2009 22.3594 8.56935 31 8.56935 31L1.78473 55.5C1.78473 55.5 -1.49985 64.7846 1.78473 72.5C5.0693 80.2154 16.0001 80.3559 16.0001 80.3559L142.5 82.5Z" fill="#3D210A"/>
<path d="M87.0607 48.0607C87.6464 47.4749 87.6464 46.5251 87.0607 45.9393L77.5147 36.3934C76.9289 35.8076 75.9792 35.8076 75.3934 36.3934C74.8076 36.9792 74.8076 37.9289 75.3934 38.5147L83.8787 47L75.3934 55.4853C74.8076 56.0711 74.8076 57.0208 75.3934 57.6066C75.9792 58.1924 76.9289 58.1924 77.5147 57.6066L87.0607 48.0607ZM55 48.5H86V45.5H55V48.5Z" fill="#F9E9D2"/>
</svg>
