<svg width="39" height="39" viewBox="0 0 39 39" fill="none" xmlns="http://www.w3.org/2000/svg">
<path d="M19.9236 7.71469C19.8102 7.6062 19.6593 7.54565 19.5023 7.54565C19.3454 7.54565 19.1945 7.6062 19.0811 7.71469L5.05786 21.111C4.99831 21.168 4.95093 21.2365 4.91859 21.3123C4.88625 21.3881 4.86962 21.4697 4.86972 21.5521L4.86743 34.125C4.86743 34.7715 5.12424 35.3915 5.58136 35.8486C6.03848 36.3057 6.65847 36.5625 7.30493 36.5625H14.6251C14.9483 36.5625 15.2583 36.4341 15.4868 36.2055C15.7154 35.977 15.8438 35.667 15.8438 35.3438V24.9844C15.8438 24.8228 15.908 24.6678 16.0223 24.5535C16.1366 24.4392 16.2916 24.375 16.4532 24.375H22.5469C22.7085 24.375 22.8635 24.4392 22.9778 24.5535C23.0921 24.6678 23.1563 24.8228 23.1563 24.9844V35.3438C23.1563 35.667 23.2847 35.977 23.5133 36.2055C23.7418 36.4341 24.0518 36.5625 24.3751 36.5625H31.6921C32.3386 36.5625 32.9586 36.3057 33.4157 35.8486C33.8728 35.3915 34.1296 34.7715 34.1296 34.125V21.5521C34.1297 21.4697 34.1131 21.3881 34.0808 21.3123C34.0484 21.2365 34.001 21.168 33.9415 21.111L19.9236 7.71469Z" fill="#3D210A"/>
<path d="M37.3936 18.5974L31.6959 13.1465V4.875C31.6959 4.55177 31.5675 4.24177 31.3389 4.01321C31.1104 3.78465 30.8004 3.65625 30.4772 3.65625H26.8209C26.4977 3.65625 26.1877 3.78465 25.9591 4.01321C25.7306 4.24177 25.6022 4.55177 25.6022 4.875V7.3125L21.1903 3.0941C20.7774 2.67668 20.1635 2.4375 19.5 2.4375C18.8389 2.4375 18.2264 2.67668 17.8136 3.09486L1.61183 18.5958C1.13804 19.0529 1.07862 19.8047 1.50976 20.2998C1.61802 20.4248 1.75058 20.5264 1.89937 20.5985C2.04817 20.6706 2.21008 20.7117 2.37525 20.7193C2.54043 20.7268 2.70541 20.7007 2.86016 20.6425C3.01492 20.5842 3.1562 20.4951 3.27542 20.3805L19.0811 5.27719C19.1945 5.1687 19.3454 5.10816 19.5023 5.10816C19.6593 5.10816 19.8101 5.1687 19.9235 5.27719L35.7307 20.3805C35.9636 20.6038 36.2755 20.7257 36.598 20.7194C36.9206 20.7131 37.2275 20.5792 37.4515 20.347C37.9192 19.8626 37.8803 19.0628 37.3936 18.5974Z" fill="#3D210A"/>
</svg>
