<svg width="38" height="38" viewBox="0 0 38 38" fill="none" xmlns="http://www.w3.org/2000/svg">
<path d="M32.6496 8.3125H30.8817C30.8799 8.3125 30.8782 8.3132 30.877 8.31446C30.8757 8.31571 30.875 8.31741 30.875 8.31918V30.875C30.875 31.5049 31.1252 32.109 31.5706 32.5544C32.016 32.9998 32.6201 33.25 33.25 33.25C33.8799 33.25 34.484 32.9998 34.9294 32.5544C35.3748 32.109 35.625 31.5049 35.625 30.875V11.2879C35.625 10.4988 35.3115 9.74198 34.7535 9.18398C34.1955 8.62598 33.4387 8.3125 32.6496 8.3125Z" fill="#3D210A"/>
<path d="M28.5 30.875V5.34375C28.5 4.95389 28.4232 4.56784 28.274 4.20766C28.1248 3.84747 27.9061 3.5202 27.6305 3.24453C27.3548 2.96885 27.0275 2.75018 26.6673 2.60098C26.3072 2.45179 25.9211 2.375 25.5312 2.375H5.34375C4.55639 2.375 3.80128 2.68778 3.24453 3.24453C2.68778 3.80128 2.375 4.55639 2.375 5.34375V31.4688C2.375 32.5711 2.81289 33.6282 3.59234 34.4077C4.37179 35.1871 5.42894 35.625 6.53125 35.625H31.9771C31.9884 35.6251 31.9995 35.623 32.0099 35.6187C32.0203 35.6145 32.0298 35.6082 32.0377 35.6002C32.0457 35.5923 32.052 35.5828 32.0562 35.5724C32.0605 35.562 32.0626 35.5509 32.0625 35.5396C32.0625 35.521 32.0562 35.5029 32.0448 35.4881C32.0334 35.4733 32.0175 35.4628 31.9994 35.458C30.9949 35.1824 30.1085 34.5849 29.4764 33.757C28.8442 32.9291 28.5012 31.9166 28.5 30.875ZM7.125 9.5C7.125 9.18506 7.25011 8.88301 7.47281 8.66031C7.69551 8.43761 7.99756 8.3125 8.3125 8.3125H13.0625C13.3774 8.3125 13.6795 8.43761 13.9022 8.66031C14.1249 8.88301 14.25 9.18506 14.25 9.5V14.25C14.25 14.5649 14.1249 14.867 13.9022 15.0897C13.6795 15.3124 13.3774 15.4375 13.0625 15.4375H8.3125C7.99756 15.4375 7.69551 15.3124 7.47281 15.0897C7.25011 14.867 7.125 14.5649 7.125 14.25V9.5ZM22.5625 29.6875H8.3459C7.70687 29.6875 7.1584 29.1962 7.12648 28.5571C7.11875 28.3966 7.14369 28.2361 7.1998 28.0855C7.25591 27.9349 7.34202 27.7972 7.45291 27.6808C7.56381 27.5644 7.69717 27.4718 7.84493 27.4085C7.99268 27.3452 8.15175 27.3125 8.3125 27.3125H22.5291C23.1681 27.3125 23.7166 27.8038 23.7485 28.4429C23.7563 28.6034 23.7313 28.7639 23.6752 28.9145C23.6191 29.0651 23.533 29.2028 23.4221 29.3192C23.3112 29.4356 23.1778 29.5282 23.0301 29.5915C22.8823 29.6548 22.7232 29.6875 22.5625 29.6875ZM22.5625 24.9375H8.3459C7.70687 24.9375 7.1584 24.4462 7.12648 23.8071C7.11875 23.6466 7.14369 23.4861 7.1998 23.3355C7.25591 23.1849 7.34202 23.0472 7.45291 22.9308C7.56381 22.8144 7.69717 22.7218 7.84493 22.6585C7.99268 22.5952 8.15175 22.5625 8.3125 22.5625H22.5291C23.1681 22.5625 23.7166 23.0538 23.7485 23.6929C23.7563 23.8534 23.7313 24.0139 23.6752 24.1645C23.6191 24.3151 23.533 24.4528 23.4221 24.5692C23.3112 24.6856 23.1778 24.7782 23.0301 24.8415C22.8823 24.9048 22.7232 24.9375 22.5625 24.9375ZM22.5625 20.1875H8.3459C7.70687 20.1875 7.1584 19.6962 7.12648 19.0571C7.11875 18.8966 7.14369 18.7361 7.1998 18.5855C7.25591 18.4349 7.34202 18.2972 7.45291 18.1808C7.56381 18.0644 7.69717 17.9718 7.84493 17.9085C7.99268 17.8452 8.15175 17.8125 8.3125 17.8125H22.5291C23.1681 17.8125 23.7166 18.3038 23.7485 18.9429C23.7563 19.1034 23.7313 19.2639 23.6752 19.4145C23.6191 19.5651 23.533 19.7028 23.4221 19.8192C23.3112 19.9356 23.1778 20.0282 23.0301 20.0915C22.8823 20.1548 22.7232 20.1875 22.5625 20.1875ZM22.5625 15.4375H17.8459C17.2069 15.4375 16.6584 14.9462 16.6265 14.3071C16.6187 14.1466 16.6437 13.9861 16.6998 13.8355C16.7559 13.6849 16.842 13.5472 16.9529 13.4308C17.0638 13.3144 17.1972 13.2218 17.3449 13.1585C17.4927 13.0952 17.6518 13.0625 17.8125 13.0625H22.5291C23.1681 13.0625 23.7166 13.5538 23.7485 14.1929C23.7563 14.3534 23.7313 14.5139 23.6752 14.6645C23.6191 14.8151 23.533 14.9528 23.4221 15.0692C23.3112 15.1856 23.1778 15.2782 23.0301 15.3415C22.8823 15.4048 22.7232 15.4375 22.5625 15.4375ZM22.5625 10.6875H17.8459C17.2069 10.6875 16.6584 10.1962 16.6265 9.55715C16.6187 9.39659 16.6437 9.23613 16.6998 9.08549C16.7559 8.93485 16.842 8.79718 16.9529 8.6808C17.0638 8.56443 17.1972 8.47178 17.3449 8.40847C17.4927 8.34517 17.6518 8.31251 17.8125 8.3125H22.5291C23.1681 8.3125 23.7166 8.80383 23.7485 9.44285C23.7563 9.60341 23.7313 9.76387 23.6752 9.91451C23.6191 10.0651 23.533 10.2028 23.4221 10.3192C23.3112 10.4356 23.1778 10.5282 23.0301 10.5915C22.8823 10.6548 22.7232 10.6875 22.5625 10.6875Z" fill="#3D210A"/>
</svg>
