<svg width="28" height="28" viewBox="0 0 28 28" fill="none" xmlns="http://www.w3.org/2000/svg">
<path d="M27.5709 25.1895L21.2234 18.842C22.7516 16.8076 23.5765 14.3313 23.5738 11.7869C23.5738 5.28764 18.2861 0 11.7869 0C5.28764 0 0 5.28764 0 11.7869C0 18.2861 5.28764 23.5738 11.7869 23.5738C14.3313 23.5765 16.8076 22.7516 18.842 21.2234L25.1895 27.5709C25.5108 27.8581 25.9298 28.0114 26.3606 27.9993C26.7914 27.9873 27.2013 27.8108 27.506 27.506C27.8108 27.2013 27.9873 26.7914 27.9993 26.3606C28.0114 25.9298 27.8581 25.5108 27.5709 25.1895ZM3.36768 11.7869C3.36768 10.1217 3.86146 8.49395 4.78657 7.10942C5.71168 5.72489 7.02658 4.64578 8.56499 4.00855C10.1034 3.37132 11.7962 3.2046 13.4294 3.52945C15.0625 3.85431 16.5627 4.65616 17.7402 5.83361C18.9176 7.01105 19.7194 8.51121 20.0443 10.1444C20.3692 11.7775 20.2024 13.4704 19.5652 15.0088C18.928 16.5472 17.8489 17.8621 16.4643 18.7872C15.0798 19.7123 13.452 20.2061 11.7869 20.2061C9.55479 20.2034 7.41489 19.3155 5.83656 17.7372C4.25824 16.1589 3.37036 14.019 3.36768 11.7869Z" fill="#F9E9D2"/>
</svg>
