<svg width="13" height="15" viewBox="0 0 13 15" fill="none" xmlns="http://www.w3.org/2000/svg">
<path d="M12.3214 2.14286H9.10714V1.33929C9.10714 0.984085 8.96604 0.643432 8.71488 0.392268C8.46371 0.141103 8.12306 0 7.76786 0H5.08929C4.73409 0 4.39343 0.141103 4.14227 0.392268C3.8911 0.643432 3.75 0.984085 3.75 1.33929V2.14286H0.535714C0.393634 2.14286 0.257373 2.1993 0.156907 2.29976C0.0564413 2.40023 0 2.53649 0 2.67857C0 2.82065 0.0564413 2.95691 0.156907 3.05738C0.257373 3.15784 0.393634 3.21429 0.535714 3.21429H1.10491L1.74107 13.4237C1.78862 14.3227 2.47768 15 3.34821 15H9.50893C10.3838 15 11.0592 14.3377 11.1161 13.4263L11.7522 3.21429H12.3214C12.4635 3.21429 12.5998 3.15784 12.7002 3.05738C12.8007 2.95691 12.8571 2.82065 12.8571 2.67857C12.8571 2.53649 12.8007 2.40023 12.7002 2.29976C12.5998 2.1993 12.4635 2.14286 12.3214 2.14286ZM4.3048 12.8571H4.28571C4.14688 12.8572 4.01343 12.8034 3.9135 12.707C3.81356 12.6107 3.75495 12.4793 3.75 12.3405L3.48214 4.84051C3.47708 4.69843 3.52867 4.56016 3.62555 4.45612C3.72244 4.35207 3.85669 4.29078 3.99877 4.28571C4.14085 4.28065 4.27912 4.33224 4.38317 4.42913C4.48721 4.52601 4.54851 4.66026 4.55357 4.80234L4.82143 12.3023C4.82398 12.3727 4.81264 12.4429 4.78805 12.5089C4.76346 12.5748 4.7261 12.6353 4.67812 12.6868C4.63014 12.7384 4.57247 12.7799 4.50841 12.8091C4.44435 12.8384 4.37516 12.8547 4.3048 12.8571ZM6.96429 12.3214C6.96429 12.4635 6.90784 12.5998 6.80738 12.7002C6.70691 12.8007 6.57065 12.8571 6.42857 12.8571C6.28649 12.8571 6.15023 12.8007 6.04976 12.7002C5.9493 12.5998 5.89286 12.4635 5.89286 12.3214V4.82143C5.89286 4.67935 5.9493 4.54309 6.04976 4.44262C6.15023 4.34216 6.28649 4.28571 6.42857 4.28571C6.57065 4.28571 6.70691 4.34216 6.80738 4.44262C6.90784 4.54309 6.96429 4.67935 6.96429 4.82143V12.3214ZM8.03571 2.14286H4.82143V1.33929C4.82102 1.304 4.82768 1.26899 4.841 1.23631C4.85431 1.20362 4.87403 1.17394 4.89898 1.14898C4.92394 1.12403 4.95362 1.10431 4.98631 1.091C5.01899 1.07768 5.054 1.07102 5.08929 1.07143H7.76786C7.80314 1.07102 7.83816 1.07768 7.87084 1.091C7.90352 1.10431 7.93321 1.12403 7.95816 1.14898C7.98311 1.17394 8.00283 1.20362 8.01615 1.23631C8.02947 1.26899 8.03612 1.304 8.03571 1.33929V2.14286ZM9.10714 12.3405C9.1022 12.4793 9.04358 12.6107 8.94364 12.707C8.84371 12.8034 8.71026 12.8572 8.57143 12.8571H8.55201C8.48167 12.8546 8.41252 12.8383 8.3485 12.8091C8.28448 12.7798 8.22685 12.7382 8.1789 12.6867C8.13096 12.6352 8.09363 12.5747 8.06906 12.5088C8.04449 12.4428 8.03316 12.3727 8.03571 12.3023L8.30357 4.80234C8.30608 4.73199 8.32242 4.66282 8.35165 4.59879C8.38089 4.53475 8.42246 4.4771 8.47397 4.42913C8.52549 4.38115 8.58595 4.3438 8.65191 4.31919C8.71786 4.29458 8.78802 4.28321 8.85837 4.28571C8.92872 4.28822 8.99789 4.30456 9.06193 4.3338C9.12596 4.36303 9.18361 4.4046 9.23159 4.45612C9.27956 4.50763 9.31692 4.5681 9.34153 4.63405C9.36613 4.70001 9.37751 4.77016 9.375 4.84051L9.10714 12.3405Z" fill="#EA3232"/>
</svg>
